<?xml version="1.0" standalone="no"?>
<!DOCTYPE svg PUBLIC "-//W3C//DTD SVG 20010904//EN"
 "http://www.w3.org/TR/2001/REC-SVG-20010904/DTD/svg10.dtd">
<svg version="1.0" xmlns="http://www.w3.org/2000/svg"
 width="2400.000000pt" height="2400.000000pt" viewBox="0 0 2400.000000 2400.000000"
 preserveAspectRatio="xMidYMid meet">
<metadata>
Created by potrace 1.14, written by Peter Selinger 2001-2017
</metadata>
<g transform="translate(0.000000,2400.000000) scale(0.100000,-0.100000)"
fill="#000000" stroke="none">
<path d="M10144 23395 c-255 -46 -406 -180 -471 -416 -17 -61 -18 -256 -18
-3865 l0 -3800 37 -76 c50 -100 137 -186 237 -236 l75 -37 136 0 136 0 75 37
c100 50 187 136 237 236 l37 76 3 3553 2 3553 4458 -1 c3694 0 4451 -3 4422
-14 -19 -7 -429 -152 -912 -323 -482 -171 -899 -322 -928 -337 -101 -51 -181
-145 -231 -270 l-24 -60 -3 -8448 -2 -8447 -3388 2 -3387 3 -5 3515 c-5 3342
-6 3517 -23 3560 -40 101 -117 195 -206 251 -145 93 -377 93 -522 1 -98 -63
-177 -165 -210 -272 -19 -64 -19 -107 -17 -3810 3 -3550 4 -3748 21 -3805 50
-171 144 -286 289 -355 161 -76 -175 -70 3831 -70 l3595 0 7 -27 c4 -16 11
-590 14 -1278 8 -1396 2 -1292 79 -1411 86 -132 208 -209 359 -228 102 -12
187 0 264 39 30 14 1192 693 2582 1507 1571 920 2546 1497 2576 1524 85 77
180 247 206 371 22 104 22 18773 0 18878 -25 118 -76 208 -174 306 -91 91
-159 132 -276 166 -57 17 -366 18 -6435 20 -5189 1 -6388 -1 -6446 -12z"/>
<path d="M3450 15486 c-1339 -1157 -2436 -2108 -2438 -2114 -1 -5 1095 -836
2437 -1846 2109 -1587 2444 -1836 2473 -1836 53 1 112 33 139 76 l24 39 3
1572 2 1573 3168 2 3168 3 80 39 c152 76 250 210 275 378 36 242 -121 482
-356 544 -41 11 -601 14 -3192 14 l-3143 0 0 1763 0 1763 -22 44 c-27 53 -68
79 -135 85 l-48 5 -2435 -2104z"/>
</g>
</svg>
